<svg id="Capa_1" enable-background="new 0 0 512.01 512.01" height="512" viewBox="0 0 512.01 512.01" width="512" xmlns="http://www.w3.org/2000/svg"><g><path d="m497.005.005h-482c-9.535 0-16.642 8.786-14.677 18.098l6.642 31.468c4.134 20.937 19.594 37.444 39.933 43.05 5.193 37.493 17.993 107.397 44.375 142.566 22.229 29.638 7.237 113.68-2.279 149.963-2.692 6.96-21.001 55.116-33.291 108.49-2.162 9.39 4.98 18.365 14.617 18.365h371.359c9.635 0 16.78-8.973 14.617-18.365-12.29-53.375-30.599-101.532-33.291-108.49-9.515-36.273-24.489-120.349-2.28-149.962 26.383-35.169 39.183-105.074 44.376-142.567 20.339-5.606 35.799-22.114 39.933-43.05l6.642-31.468c1.97-9.33-5.161-18.098-14.676-18.098zm-460.614 43.695c-.033-.167.298 1.405-2.89-13.695h207.504v8.627l-9.494 33.229c-4.352 15.232-19.8 24.151-35.168 20.312-.52-.132 8.299 1.648-139.62-28.032-10.333-2.072-18.314-10.096-20.332-20.441zm76.08 364.448c18.13 4.887 52.645 12.831 96.534 16.511v57.347h-119.543c8.035-30.785 17.461-58.44 23.009-73.858zm126.534 73.857v-55.628c11.578.358 22.405.358 34 0v55.628zm64 0v-57.347c43.89-3.68 78.404-11.624 96.534-16.511 5.548 15.418 14.974 43.073 23.009 73.857h-119.543zm93.728-264.818c-28.202 37.602-16.347 116.461-5.984 162.213-86.578 22.886-182.759 22.927-269.486 0 10.395-45.902 22.19-124.648-5.985-162.214-17.515-23.348-30.105-73.153-37.103-118.142l111.259 22.324c26.988 6.57 54.222-6.239 66.572-30.246 12.291 23.891 39.457 36.85 66.572 30.246l111.259-22.324c-6.999 44.989-19.589 94.794-37.104 118.143zm78.932-173.711c-2.398 11.389-10.592 18.703-20.378 20.666-149.279 29.953-139.104 27.902-139.62 28.032-15.367 3.841-30.816-5.08-35.168-20.312l-9.494-33.229v-8.627h207.504z"/><path d="m270.715 332.345c-1.897-9.061-11.044-13.98-19.07-11.41-7.657 2.325-12.435 10.476-9.99 18.7 2.401 7.854 10.647 12.387 18.71 9.99 7.097-2.17 11.844-9.304 10.35-17.28z"/><path d="m353.865 137.121c-8.226-1.023-15.717 4.803-16.744 13.023l-4.402 35.218c-1.009 8.068-8.133 13.814-16.242 13.078l-45.472-4.134v-34.302c0-8.284-6.716-15-15-15s-15 6.716-15 15v34.302l-45.471 4.134c-8.098.754-15.234-5.008-16.243-13.078l-4.402-35.218c-1.027-8.221-8.533-14.05-16.744-13.023-8.221 1.027-14.052 8.524-13.023 16.744l4.402 35.218c3.027 24.225 24.448 41.443 48.727 39.234l57.755-5.25 57.756 5.25c24.312 2.212 45.703-15.043 48.726-39.234l4.402-35.218c1.027-8.219-4.804-15.716-13.025-16.744z"/><path d="m349.463 252.339c-8.223-1.026-15.717 4.804-16.744 13.023-1.009 8.069-8.133 13.816-16.242 13.078l-45.472-4.134v-10.302c0-8.284-6.716-15-15-15s-15 6.716-15 15v10.302l-45.471 4.134c-8.098.747-15.234-5.008-16.243-13.078-1.027-8.221-8.517-14.051-16.744-13.023-8.22 1.027-14.051 8.523-13.023 16.744 2.85 22.808 22.013 39.425 44.54 39.425 3.007 0-.852.268 61.941-5.441 62.54 5.685 58.953 5.441 61.941 5.441 22.527 0 41.69-16.617 44.54-39.425 1.028-8.22-4.803-15.717-13.023-16.744z"/></g></svg>